<?xml version="1.0" standalone="no"?>
<!DOCTYPE svg PUBLIC "-//W3C//DTD SVG 20010904//EN"
 "http://www.w3.org/TR/2001/REC-SVG-20010904/DTD/svg10.dtd">
<svg version="1.0" xmlns="http://www.w3.org/2000/svg"
 width="1024.000000pt" height="1024.000000pt" viewBox="0 0 1024.000000 1024.000000"
 preserveAspectRatio="xMidYMid meet">
<metadata>
Created by potrace 1.11, written by Peter Selinger 2001-2013
</metadata>
<g transform="translate(0.000000,1024.000000) scale(0.100000,-0.100000)"
fill="#000000" stroke="none">
<path d="M4830 9124 c-542 -29 -973 -115 -1233 -245 -161 -81 -246 -166 -322
-323 -89 -185 -105 -315 -105 -883 l0 -353 960 0 960 0 0 -120 0 -120 -1382 0
c-1513 0 -1454 2 -1637 -59 -173 -58 -320 -150 -452 -282 -218 -217 -333 -489
-410 -968 -67 -415 -66 -839 1 -1252 122 -752 384 -1159 825 -1281 75 -21 104
-22 493 -26 l412 -3 0 446 c0 245 5 489 10 543 29 267 149 513 349 713 167
167 349 268 591 327 57 14 210 17 1180 22 977 6 1123 9 1180 23 188 47 322
122 458 257 135 135 231 308 270 489 15 68 17 181 17 1101 0 1085 1 1060 -47
1210 -71 220 -271 442 -519 576 -194 104 -395 150 -844 190 -156 14 -626 25
-755 18z m-643 -635 c202 -103 246 -397 85 -570 -122 -132 -283 -154 -430 -59
-123 79 -173 162 -180 296 -4 68 -1 89 21 142 27 68 61 112 124 161 71 55 126
72 225 68 76 -3 96 -7 155 -38z"/>
<path d="M7317 6573 c-3 -424 -7 -520 -21 -578 -56 -241 -162 -437 -329 -606
-186 -190 -365 -295 -595 -351 -85 -21 -111 -22 -1197 -27 -1110 -7 -1110 -7
-1190 -29 -272 -76 -508 -276 -630 -535 -96 -201 -97 -223 -92 -1392 4 -1028
2 -992 59 -1133 44 -108 90 -174 188 -272 110 -111 196 -170 365 -251 438
-211 1082 -311 1633 -254 813 84 1363 365 1523 779 47 122 51 159 56 609 l5
427 -961 0 -961 0 0 125 0 125 1482 0 c1010 0 1502 3 1547 11 98 16 211 55
280 97 210 127 388 430 530 902 153 506 160 1079 20 1749 -35 168 -67 286
-109 395 -127 328 -293 533 -521 640 -147 70 -147 70 -636 74 l-441 3 -5 -508z
m-959 -4113 c92 -24 182 -112 222 -217 18 -48 21 -73 18 -148 -5 -111 -35
-181 -107 -248 -61 -57 -113 -84 -187 -96 -257 -41 -468 201 -400 458 52 192
251 302 454 251z"/>
</g>
</svg>
